<?xml version="1.0" encoding="utf-8" ?>
<svg xmlns="http://www.w3.org/2000/svg" xmlns:xlink="http://www.w3.org/1999/xlink" width="596" height="596">
	<path fill="#020B64" transform="scale(0.582813 0.582813)" d="M398.998 44.7352C406.122 55.3693 411.915 66.6966 417.802 78.0399Q432.186 105.65 445.033 134.007C449.695 144.145 455.925 155.873 459.477 166.315C503.397 159.948 546.861 167.837 582.971 194.708C591.38 200.965 598.6 208.126 605.494 215.991C622.269 191.851 645.596 171.026 672.778 159.43C685.624 201.293 692.234 245.871 680.746 288.752C683.679 293.145 687.956 296.895 691.165 301.176C699.631 312.47 706.005 324.978 711.1 338.099Q714.803 347.8 717.744 357.759Q720.685 367.718 722.846 377.875C725.386 389.441 727.007 401.497 730.642 412.771C737.088 432.766 751.5 448.44 772.623 452.61C785.889 455.228 800.688 452.64 811.897 444.993C825.24 435.891 831.1 420.491 835.59 405.608C842.473 434.082 840.986 463.621 825.484 489.084C813.251 509.175 791.496 523.334 768.869 528.802C759.355 531.101 750.178 531.288 740.472 530.353C745.11 546.378 753.208 560.84 768.215 569.16C780.22 575.815 794.344 576.903 807.421 572.986C821.975 568.628 833.833 558.261 841.518 545.311C840.583 573.632 831.295 602.352 810.117 622.03C789.754 640.951 767.064 646.07 740.053 647.089Q740.259 648.68 740.544 650.259Q740.829 651.839 741.191 653.402Q741.553 654.965 741.992 656.508Q742.431 658.052 742.946 659.571Q743.461 661.091 744.05 662.584Q744.639 664.076 745.301 665.538Q745.963 667 746.696 668.427Q747.429 669.854 748.232 671.243Q749.035 672.633 749.906 673.981Q750.776 675.329 751.712 676.632Q752.648 677.935 753.647 679.191Q754.646 680.447 755.706 681.651Q756.766 682.856 757.884 684.007Q759.002 685.158 760.176 686.252Q761.349 687.347 762.575 688.382Q763.801 689.417 765.077 690.39Q766.608 691.526 768.192 692.587Q769.776 693.648 771.41 694.63Q773.044 695.613 774.724 696.514Q776.403 697.416 778.125 698.235Q779.846 699.054 781.606 699.788Q783.365 700.522 785.158 701.17Q786.951 701.817 788.774 702.377Q790.596 702.937 792.444 703.407Q794.291 703.877 796.159 704.257Q798.028 704.637 799.912 704.926Q801.797 705.214 803.693 705.411Q805.589 705.607 807.493 705.711Q809.396 705.815 811.303 705.827Q813.209 705.838 815.114 705.757Q817.018 705.675 818.917 705.501Q820.815 705.327 822.703 705.061C845.672 701.755 862.351 689.011 876.262 671.029C867.392 720.88 850.66 759.058 807.577 788.929Q804.315 791.238 800.938 793.376Q797.562 795.514 794.08 797.475Q790.597 799.436 787.018 801.215Q783.44 802.993 779.774 804.586Q776.108 806.178 772.365 807.579Q768.623 808.98 764.812 810.186Q761.002 811.392 757.135 812.4Q753.268 813.408 749.354 814.216C757.493 822.11 765.203 829.847 771.756 839.17C806.125 888.068 818.499 965.331 823.556 1024L813.592 1024L756.569 1024L722.781 1024L710.426 1024L641.912 1024L371.596 1024L306.974 1024L292.781 1024L265.492 1024L206.897 1024L196.484 1024C199.017 998.521 201.958 972.971 207.194 947.882C217.253 899.679 237.629 843.713 276.794 811.429C300.974 791.498 329.302 777.28 358.27 765.745C362.102 754.776 367.295 747.626 377.946 742.526C380.16 741.466 382.435 740.525 384.7 739.582C388.168 725.024 389.879 710.062 393.357 695.475C353.753 700.739 314.996 700.856 281.586 675.144C271.383 667.291 262.358 657.58 256.667 645.957C254.275 641.074 252.396 635.809 249.756 631.068C247.504 627.023 244.516 623.36 242.076 619.421C236.985 611.202 234.411 600.416 233.198 590.924C230.489 569.732 236.054 547.52 249.231 530.61C253.05 525.71 257.399 521.349 261.884 517.069C261.947 506.001 261.445 494.022 263.099 483.07C239.451 465.357 235.694 448.861 231.696 420.818C229.924 408.385 223.033 352.076 228.659 344.058C231.155 340.502 237.926 339.467 242.006 338.973C254.502 337.459 272.486 338.044 284.851 340.082C295.221 324.237 305.247 308.384 314.974 292.139C309.598 282.823 304.035 272.846 301.136 262.452C299.439 256.368 299.068 249.915 298.624 243.636C296.732 216.88 299.794 190.948 306.738 165.077C308.719 157.7 310.429 148.866 316.245 143.49C322.816 145.932 328.602 150.528 334.084 154.816C354.039 170.425 371.597 189.322 384.061 211.454C390.47 205.485 400.38 200.547 408.31 196.805C405.54 179.839 404.255 162.365 402.572 145.249Q400.519 124.286 399.073 103.273C397.636 83.6058 396.429 64.3702 398.998 44.7352Z"/>
	<path fill="#EAD" transform="scale(0.582813 0.582813)" d="M860.371 698.563C859.49 702.461 856.911 704.863 854.068 707.488C852.133 706.963 850.291 706.426 848.45 707.511C848.235 707.637 848.043 707.797 847.839 707.941L846.895 707.368C851.75 705.205 856.087 701.673 860.371 698.563Z"/>
	<path fill="#F578C5" transform="scale(0.582813 0.582813)" d="M420.581 96.8589C423.955 103.594 427.519 110.361 430.248 117.39C429.249 123.154 427.894 128.462 425.738 133.901C421.398 125.729 421.923 114.809 416.261 107.437C417.763 103.931 419.238 100.429 420.581 96.8589Z"/>
	<path fill="#F578C5" transform="scale(0.582813 0.582813)" d="M399.393 48.6676C402.633 53.9902 404.845 60.261 407.285 65.993Q412.625 78.7379 418.354 91.3128C416.986 95.8371 415.611 100.401 413.491 104.643C411.08 100.869 410.625 94.3035 409.728 89.8818C408.455 83.608 403.448 59.1369 399.981 54.913C399.736 52.83 399.487 50.7645 399.393 48.6676Z"/>
	<path fill="#F9E842" transform="scale(0.582813 0.582813)" d="M818.952 578.066C818.427 580.717 816.56 582.241 814.334 583.723C804.11 590.528 785.389 591.61 773.662 589.008C772.647 588.782 771.664 588.525 770.685 588.172C770.498 587.35 770.293 586.534 770.095 585.715C769.547 583.447 768.874 581.988 767.522 580.073Q768.86 580.656 770.223 581.177C787.254 587.813 802.665 585.193 818.952 578.066Z"/>
	<path fill="#EAD" transform="scale(0.582813 0.582813)" d="M399.981 54.913C403.448 59.1369 408.455 83.608 409.728 89.8818C410.625 94.3035 411.08 100.869 413.491 104.643C411.394 108.609 408.687 112.362 406.245 116.129C403.888 95.7595 401.132 75.3936 399.981 54.913Z"/>
	<path fill="#EAD" transform="scale(0.582813 0.582813)" d="M268.529 486.375C276.919 490.915 285.226 495.496 293.857 499.572C290.938 501.178 287.901 502.616 284.925 504.119C280.085 506.956 275.397 509.998 270.699 513.061C270.106 504.156 269.058 495.292 268.529 486.375Z"/>
	<path fill="#A8F1F2" transform="scale(0.582813 0.582813)" d="M826.956 443.611C827.116 447.56 824.267 451.687 821.679 454.493C821.619 454.557 821.553 454.614 821.49 454.675C821.306 454.756 821.122 454.834 820.939 454.918C816.621 456.888 813.453 460.441 809.331 462.739C798.964 468.52 779.037 472.517 767.588 468.438C767.232 468.311 766.773 468.061 766.455 467.899L766.706 467.073C765.088 460.366 756.701 461.244 753.056 456.668C764.268 460.043 770.264 463.841 782.753 463.699C800.381 463.499 814.853 456.116 826.956 443.611Z"/>
	<path fill="#EAD" transform="scale(0.582813 0.582813)" d="M635.403 352.555C638.086 350.656 640.739 348.644 643.489 346.849C647.644 363.298 650.847 379.132 652.621 395.998L643.681 395.99C642.438 386.108 638.853 360.395 635.403 352.555Z"/>
	<path fill="#F578C5" transform="scale(0.582813 0.582813)" d="M350.592 226.897L355.975 235.681C346.117 246.544 336.487 257.877 326.201 268.328C324.168 264.732 323.447 261.373 322.889 257.355C326.057 254.175 328.865 250.555 331.853 247.2Q341.059 236.898 350.592 226.897Z"/>
	<defs>
		<linearGradient id="gradient_0" gradientUnits="userSpaceOnUse" x1="753.25525" y1="553.72205" x2="736.79407" y2="562.01215">
			<stop offset="0" stop-color="#FBFDEE"/>
			<stop offset="1" stop-color="#FAF9FC"/>
		</linearGradient>
	</defs>
	<path fill="url(#gradient_0)" transform="scale(0.582813 0.582813)" d="M722.569 525.786Q726.2 526.969 729.812 528.207C735.093 548.994 743.953 566.232 762.894 577.592Q765.16 578.922 767.522 580.073C768.874 581.988 769.547 583.447 770.095 585.715C770.293 586.534 770.498 587.35 770.685 588.172L769.483 587.96C761.696 585.598 753.936 580.51 747.934 575.098C735.261 563.671 723.511 543.062 722.569 525.786Z"/>
	<path fill="#33DCF2" transform="scale(0.582813 0.582813)" d="M610.919 399.714C618.897 399.642 655.335 398.308 659.815 400.091C661.922 402.507 661.615 405.893 661.734 408.923C644.222 409.473 626.888 410.225 609.357 409.966L609.659 407.496Q610.346 403.614 610.919 399.714Z"/>
	<path fill="#F578C5" transform="scale(0.582813 0.582813)" d="M433.549 123.047C438.045 132.531 442.527 142.068 446.442 151.811C444.487 161.131 441.466 169.873 435.657 177.54C432.654 168.795 431.826 148.091 426.653 141.872C429.651 135.747 432.001 129.706 433.549 123.047Z"/>
	<path fill="#EAD" transform="scale(0.582813 0.582813)" d="M416.261 107.437C421.923 114.809 421.398 125.729 425.738 133.901C421.784 142.26 416.749 148.849 410.228 155.346Q407.837 137.421 406.387 119.395C410.074 115.796 413.215 111.578 416.261 107.437Z"/>
	<path fill="#EAD" transform="scale(0.582813 0.582813)" d="M338.222 198.408C342.807 196.506 347.217 195.178 352.101 194.302C359.075 202.31 365.123 211.679 372.515 219.193L359.27 232.479C352.363 221.058 345.034 209.881 338.222 198.408Z"/>
	<path fill="#F9E842" transform="scale(0.582813 0.582813)" d="M335.968 266.359C353.52 241.753 383.353 220.889 409.463 206.398C409.994 210.759 410.344 215.151 410.755 219.526C389.504 225.176 372.208 240.029 355.17 253.201C349.811 257.344 343.976 261.183 338.844 265.569L335.968 266.359Z"/>
	<path fill="#EAD" transform="scale(0.582813 0.582813)" d="M426.653 141.872C431.826 148.091 432.654 168.795 435.657 177.54C430.652 185.578 421.678 191.778 413.572 196.296C413.149 184.323 411.54 172.147 410.375 160.216C417.113 154.73 421.864 149.111 426.653 141.872Z"/>
	<path fill="#EA6428" transform="scale(0.582813 0.582813)" d="M479.697 216.749C501.87 221.644 520.888 231.127 539.773 243.528L529.556 243.516Q524.96 243.916 520.415 244.705Q515.87 245.494 511.408 246.667Q506.946 247.839 502.6 249.387Q498.254 250.934 494.055 252.845Q487.298 234.629 479.697 216.749Z"/>
	<path fill="#306DC5" transform="scale(0.582813 0.582813)" d="M608.635 407.446L609.659 407.496L609.357 409.966C626.888 410.225 644.222 409.473 661.734 408.923C662.283 413.179 663.59 419.3 660.855 422.996C659.238 425.182 656.403 425.935 653.833 426.207C648.918 426.726 643.723 426.429 638.778 426.384L638.38 427.455C640.526 428.675 642.358 427.508 644.613 429.051L632.944 429.462L622.508 429.566L605.182 429.764C602.579 437.035 600.427 444.705 597.417 451.792L595.563 452.004C600.979 437.288 605.716 422.876 608.635 407.446Z"/>
	<path fill="#020041" transform="scale(0.582813 0.582813)" d="M608.635 407.446L609.659 407.496L609.357 409.966C608.061 415.519 607.146 421.172 605.667 426.679Q622.222 426.445 638.778 426.384L638.38 427.455C640.526 428.675 642.358 427.508 644.613 429.051L632.944 429.462L622.508 429.566L605.182 429.764C602.579 437.035 600.427 444.705 597.417 451.792L595.563 452.004C600.979 437.288 605.716 422.876 608.635 407.446Z"/>
	<path fill="#F578C5" transform="scale(0.582813 0.582813)" d="M436.385 184.566C443.145 176.381 446.864 169.212 449.77 158.999C456.274 170.748 461.813 184.269 466.55 196.838C462.659 209.699 457.491 221.096 447.302 230.295C444.659 220.081 441.317 191.312 436.385 184.566Z"/>
	<path fill="#B09FDE" transform="scale(0.582813 0.582813)" d="M447.986 234.736C450.625 247.844 450.807 261.561 451.403 274.88C448.47 275.384 445.455 276.448 442.539 277.137L422.693 281.764C420.263 269.994 419.831 257.531 418.465 245.582C429.714 244.944 438.743 241.052 447.986 234.736Z"/>
	<defs>
		<linearGradient id="gradient_1" gradientUnits="userSpaceOnUse" x1="647.84344" y1="809.87958" x2="613.70728" y2="782.43542">
			<stop offset="0" stop-color="#F4D6F3"/>
			<stop offset="1" stop-color="#FEFAFE"/>
		</linearGradient>
	</defs>
	<path fill="url(#gradient_1)" transform="scale(0.582813 0.582813)" d="M642.241 744.542C648.561 746.515 654.017 749.218 657.22 755.375C661.594 763.786 659.493 774.023 656.625 782.553C647.042 811.063 628.394 837.745 608.617 860.095C608.705 856.718 623.408 836.611 626.339 831.63C635.003 816.907 644.314 798.645 644.96 781.392C645.052 778.929 645.284 775.973 643.51 774.056C634.085 771.559 624.35 795.535 617.708 797.359C617.515 797.412 617.31 797.406 617.112 797.43C628.88 780.993 641.657 765.69 642.241 744.542Z"/>
	<path fill="#EAD" transform="scale(0.582813 0.582813)" d="M322.889 257.355C318.519 232.159 320.625 205.747 322.173 180.366C325.994 185.852 329.315 191.837 332.803 197.546Q341.815 212.151 350.592 226.897Q341.059 236.898 331.853 247.2C328.865 250.555 326.057 254.175 322.889 257.355Z"/>
	<path fill="#FEFEFE" transform="scale(0.582813 0.582813)" d="M677.529 297.007C691.016 315.585 701.054 335.468 707.442 357.548C715.645 385.903 716.191 420.561 737.224 443.378C741.894 448.445 747.569 452.536 753.056 456.668C756.701 461.244 765.088 460.366 766.706 467.073L766.455 467.899C760.701 466.446 754.919 463.813 749.687 461.038C711.564 440.815 712.28 395.554 701.335 359.287C695.402 339.627 686.299 321.58 674.679 304.67L677.529 297.007Z"/>
	<path fill="#EAD" transform="scale(0.582813 0.582813)" d="M436.385 184.566C441.317 191.312 444.659 220.081 447.302 230.295C438.874 237.643 429.327 241.846 418.534 244.491C415.66 229.616 415.654 214.101 413.425 199.099C422.312 196.121 429.608 190.971 436.385 184.566Z"/>
	<path fill="#53AA48" transform="scale(0.582813 0.582813)" d="M646.993 344.163C656.374 334.944 663.217 324.723 670.357 313.785C670.917 329.091 671.434 347.23 676.697 361.718C672.262 374.276 670.238 387.689 664.523 399.768C661.976 397.086 660.126 396.533 656.637 395.736C656.059 378.392 651.619 360.795 646.993 344.163Z"/>
	<path fill="#EAD" transform="scale(0.582813 0.582813)" d="M385.078 747.421C385.117 768.085 391.991 781.377 400.835 799.313C395.13 795.909 390.184 780.975 387.586 774.654C382.042 782.243 379.487 788.258 381.005 797.804C385.113 823.64 404.726 852.574 420.332 873.235C425.127 879.584 430.059 885.944 435.525 891.734C441.819 898.401 448.68 904.614 454.728 911.5C455.54 912.424 456.251 913.145 456.363 914.439C450.766 910.595 445.6 905.359 440.651 900.711C414.044 875.725 391.204 845.731 376.258 812.308C370.227 798.819 360.538 777.63 366.516 762.986C369.756 755.048 377.622 750.67 385.078 747.421Z"/>
	<path fill="#EA6428" transform="scale(0.582813 0.582813)" d="M414.757 254.933C415.804 264.019 417.145 273.226 417.675 282.353C386.755 286.246 360.163 285.562 331.369 271.507C332.658 269.972 334.349 267.441 335.968 266.359L338.844 265.569C348.441 269.386 378.212 264 389.283 261.115C397.33 259.019 406.518 255.301 414.757 254.933Z"/>
	<path fill="#29A7EE" transform="scale(0.582813 0.582813)" d="M469.357 202.536Q480.256 228.467 489.628 254.988C476.881 261.59 464.682 269.406 451.403 274.88C450.807 261.561 450.625 247.844 447.986 234.736C458.875 225.396 464.687 216.017 469.357 202.536Z"/>
	<path fill="#F58D0E" transform="scale(0.582813 0.582813)" d="M410.755 219.526C412.327 231.288 413.462 243.136 414.757 254.933C406.518 255.301 397.33 259.019 389.283 261.115C378.212 264 348.441 269.386 338.844 265.569C343.976 261.183 349.811 257.344 355.17 253.201C372.208 240.029 389.504 225.176 410.755 219.526Z"/>
	<path fill="#29A7EE" transform="scale(0.582813 0.582813)" d="M452.662 493.011C456.774 493.837 463.865 499.871 467.67 502.371C476.752 508.339 486.612 513.902 497.389 516.025C558.965 528.156 573.951 471.237 592.981 426.81C596.62 418.315 600.509 407.085 608.613 401.801C608.761 401.705 608.913 401.612 609.062 401.517L608.635 407.446C605.716 422.876 600.979 437.288 595.563 452.004C583.277 479.258 571.867 508.688 541.605 520.256C522.376 527.607 501.447 525.114 482.962 516.779C472.126 511.894 459.26 503.079 452.662 493.011Z"/>
	<path fill="#F0C419" transform="scale(0.582813 0.582813)" d="M462.228 175.174C471.741 174.048 481.15 173.012 490.751 173.161C522.054 173.648 554.838 184.738 579.46 204.138C587.509 210.48 594.533 217.885 600.785 225.983L594.393 236.705C589.244 232.481 584.823 227.174 580.08 222.495C576.292 218.759 571.726 215.606 567.394 212.519Q565.471 211.12 563.501 209.787Q561.532 208.454 559.518 207.189Q557.504 205.924 555.448 204.729Q553.392 203.534 551.296 202.41Q549.2 201.285 547.067 200.233Q544.934 199.181 542.767 198.203Q540.599 197.224 538.399 196.321Q536.2 195.417 533.97 194.589Q531.741 193.761 529.484 193.009Q527.228 192.258 524.947 191.584Q522.667 190.91 520.364 190.315Q518.062 189.719 515.74 189.203Q513.419 188.686 511.081 188.249Q508.743 187.813 506.392 187.456Q504.04 187.099 501.678 186.823Q499.316 186.547 496.946 186.352C487.013 185.436 476.716 185.959 466.738 186.014C465.214 182.414 463.621 178.826 462.228 175.174Z"/>
	<path fill="#EAD" transform="scale(0.582813 0.582813)" d="M317.174 270.088C356.952 294.125 414.235 298.147 456.978 279.805C486.684 267.057 508.356 246.145 543.187 249.484C550.6 250.194 577.541 256.689 581.635 263.285C582.576 264.801 582.083 265.884 581.823 267.535C565.404 262.96 549.511 255.17 532.023 257.354C517.02 259.227 502.72 265.618 489.2 272.114C456.278 287.931 435.719 298.947 397.939 299.088C380.648 299.152 364.31 297.104 348.077 290.839C340.251 287.818 321.583 279.469 317.194 272.225C317.18 271.519 317.132 270.792 317.174 270.088Z"/>
	<path fill="#FEFEFE" transform="scale(0.582813 0.582813)" d="M316.828 147.855C341.208 166.478 360.009 190.161 376.598 215.73L372.515 219.193C365.123 211.679 359.075 202.31 352.101 194.302C347.217 195.178 342.807 196.506 338.222 198.408C332.891 190.347 328.196 181.652 321.135 174.927C313.62 201.472 316.481 237.425 321.008 264.426C316.37 260.971 311.679 257.569 307.124 254.006C302.704 223.72 306.538 176.587 316.828 147.855Z"/>
	<path fill="#B09FDE" transform="scale(0.582813 0.582813)" d="M322.538 302.074C344.962 329.21 373.105 345.837 408.408 349.252C463.721 354.603 500.258 327.079 550.768 314.278C557.991 312.448 566.582 309.831 574.04 310.285C575.52 310.375 577.194 310.674 578.067 312C578.277 312.319 578.43 312.871 578.548 313.242C558.527 316.057 541.236 324.957 523.077 333.031C488.091 348.587 448.808 360.754 410.105 357.232Q403.243 356.675 396.486 355.353Q389.73 354.031 383.164 351.961C362.253 345.282 328.812 327.288 314.998 310.741L322.538 302.074Z"/>
	<path fill="#EAD" transform="scale(0.582813 0.582813)" d="M605.182 429.764L622.508 429.566C621.335 434.657 620.456 440.56 620.937 445.779C617.482 469.963 605.058 497.245 585.277 512.228C569.795 523.955 541.517 531.54 522.354 528.671C521.064 528.478 520.138 528.218 518.991 527.579C528.675 525.407 538.694 523.975 547.78 519.805C574.731 507.434 587.646 477.947 597.417 451.792C600.427 444.705 602.579 437.035 605.182 429.764Z"/>
	<path fill="#F58D0E" transform="scale(0.582813 0.582813)" d="M466.738 186.014C476.716 185.959 487.013 185.436 496.946 186.352Q499.316 186.547 501.678 186.823Q504.04 187.099 506.392 187.456Q508.743 187.813 511.081 188.249Q513.419 188.686 515.74 189.203Q518.062 189.719 520.364 190.315Q522.667 190.91 524.947 191.584Q527.228 192.258 529.484 193.009Q531.741 193.761 533.97 194.589Q536.2 195.417 538.399 196.321Q540.599 197.224 542.767 198.203Q544.934 199.181 547.067 200.233Q549.2 201.285 551.296 202.41Q553.392 203.534 555.448 204.729Q557.504 205.924 559.518 207.189Q561.532 208.454 563.501 209.787Q565.471 211.12 567.394 212.519C571.726 215.606 576.292 218.759 580.08 222.495C584.823 227.174 589.244 232.481 594.393 236.705C591.344 244.259 587.108 251.61 583.75 259.093C575.957 254.222 568.139 250.067 559.259 247.471C554.104 245.964 548.411 245.123 543.497 242.934C538.014 240.492 534.052 235.483 528.868 232.488C512.908 223.271 495.766 217.943 478.063 213.241C474.086 204.258 470.427 195.117 466.738 186.014Z"/>
	<path fill="#33DCF2" transform="scale(0.582813 0.582813)" d="M670.357 313.785L674.679 304.67C686.299 321.58 695.402 339.627 701.335 359.287C712.28 395.554 711.564 440.815 749.687 461.038C754.919 463.813 760.701 466.446 766.455 467.899C766.773 468.061 767.232 468.311 767.588 468.438C779.037 472.517 798.964 468.52 809.331 462.739C813.453 460.441 816.621 456.888 820.939 454.918C821.122 454.834 821.306 454.756 821.49 454.675C821.282 455.259 821.291 455.288 820.945 455.929C814.613 467.662 799.915 476.803 787.473 480.476Q785.878 480.944 784.262 481.333Q782.647 481.721 781.014 482.03Q779.381 482.339 777.734 482.566Q776.088 482.794 774.433 482.94Q772.777 483.087 771.116 483.151Q769.456 483.216 767.794 483.198Q766.132 483.181 764.473 483.081Q762.814 482.982 761.162 482.801Q759.51 482.62 757.869 482.357Q756.228 482.095 754.602 481.752Q752.975 481.409 751.368 480.987Q749.761 480.564 748.176 480.063Q746.592 479.561 745.034 478.982Q743.476 478.403 741.948 477.748Q740.421 477.093 738.928 476.364Q737.435 475.634 735.979 474.832C728.587 470.794 722.641 465.332 716.823 459.298C688.765 430.199 687.228 397.775 676.697 361.718C671.434 347.23 670.917 329.091 670.357 313.785Z"/>
	<path fill="#DE388F" transform="scale(0.582813 0.582813)" d="M313.916 274.842L314.502 273.371C315.63 273.141 315.651 273.191 316.559 273.848C319.847 276.228 322.383 280.183 325.157 283.135C328.33 286.51 332.304 289.576 335.994 292.357C364.236 313.641 401.616 321.301 436.349 317.184Q445.354 316.104 454.218 314.187Q463.082 312.27 471.728 309.532C501.963 299.918 546.63 277.269 577.441 292.439Q576.994 299.945 577.017 307.465C552.285 306.113 529.831 314.954 507.21 323.611C471.885 337.13 434.578 348.518 396.55 339.68C368.152 333.081 344.111 317.361 326.478 294.081C321.867 287.994 317.96 281.315 313.916 274.842Z"/>
	<path fill="#F578C5" transform="scale(0.582813 0.582813)" d="M317.174 270.088C317.132 270.792 317.18 271.519 317.194 272.225C321.583 279.469 340.251 287.818 348.077 290.839C364.31 297.104 380.648 299.152 397.939 299.088C435.719 298.947 456.278 287.931 489.2 272.114C502.72 265.618 517.02 259.227 532.023 257.354C549.511 255.17 565.404 262.96 581.823 267.535C579.509 275.646 577.757 283.988 577.441 292.439C546.63 277.269 501.963 299.918 471.728 309.532Q463.082 312.27 454.218 314.187Q445.354 316.104 436.349 317.184C401.616 321.301 364.236 313.641 335.994 292.357C332.304 289.576 328.33 286.51 325.157 283.135C322.383 280.183 319.847 276.228 316.559 273.848C315.651 273.191 315.63 273.141 314.502 273.371L313.916 274.842Q310.635 268.519 307.44 262.152Q312.362 266.052 317.174 270.088Z"/>
	<path fill="#29A7EE" transform="scale(0.582813 0.582813)" d="M676.697 361.718C687.228 397.775 688.765 430.199 716.823 459.298C722.641 465.332 728.587 470.794 735.979 474.832Q737.435 475.634 738.928 476.364Q740.421 477.093 741.948 477.748Q743.476 478.403 745.034 478.982Q746.592 479.561 748.176 480.063Q749.761 480.564 751.368 480.987Q752.975 481.409 754.602 481.752Q756.228 482.095 757.869 482.357Q759.51 482.62 761.162 482.801Q762.814 482.982 764.473 483.081Q766.132 483.181 767.794 483.198Q769.456 483.216 771.116 483.151Q772.777 483.087 774.432 482.94Q776.088 482.794 777.734 482.566Q779.381 482.339 781.014 482.03Q782.647 481.721 784.263 481.333Q785.878 480.944 787.473 480.476C799.915 476.803 814.613 467.662 820.945 455.929C821.291 455.288 821.282 455.259 821.49 454.675C821.553 454.614 821.619 454.557 821.679 454.493C824.267 451.687 827.116 447.56 826.956 443.611C829.558 440.206 831.404 435.803 833.676 432.102C830.42 453.03 826.263 474.675 812.146 491.373C798.296 507.756 776.589 518.357 755.313 520.126C734.825 521.828 716.213 515.884 700.521 502.534C680.491 485.492 669.067 457.001 666.133 431.383C664.937 420.937 665.359 410.275 664.523 399.768C670.238 387.689 672.262 374.276 676.697 361.718Z"/>
	<path fill="#B9257B" transform="scale(0.582813 0.582813)" d="M641.018 737.909C631.754 692.238 627.652 646.349 634.289 599.992C634.173 603.013 635.753 605.464 635.878 608.51C636.196 616.298 636.466 623.882 637.582 631.616Q638.033 634.697 638.598 637.76Q639.163 640.823 639.84 643.862Q640.518 646.902 641.307 649.915Q642.096 652.927 642.996 655.909Q643.896 658.89 644.905 661.836Q645.914 664.783 647.031 667.69Q648.148 670.597 649.372 673.461Q650.595 676.324 651.924 679.141Q653.252 681.958 654.683 684.724Q656.115 687.49 657.647 690.201Q659.18 692.912 660.811 695.565Q662.443 698.217 664.171 700.808Q665.899 703.399 667.722 705.924Q669.545 708.449 671.459 710.905Q673.374 713.362 675.378 715.746Q677.381 718.13 679.472 720.438Q682.131 723.311 684.984 725.993Q687.836 728.675 690.868 731.153Q693.9 733.63 697.096 735.891Q700.292 738.152 703.638 740.186C707.376 742.463 712.408 744.475 715.655 747.298L715.781 748.088C721.568 755.199 741.338 759.262 750.269 760.79C784.667 766.672 816.815 755.89 844.729 736.191C815.866 776.276 787.967 795.209 739.775 807.285C719.374 790.297 691.391 775.112 666.662 765.601C666.2 758.794 664.564 752.344 660.168 746.927C654.975 740.525 648.802 738.82 641.018 737.909Z"/>
	<path fill="#B09FDE" transform="scale(0.582813 0.582813)" d="M644.613 429.051C647.422 429.242 650.208 429.345 653.023 429.372C649.541 490.367 642.932 561.145 594.135 604.475C560.488 634.352 513.25 645.771 469.507 649.163C475.771 639.125 480.056 630.225 482.167 618.46C466.626 650.632 443.462 668.18 410.221 679.724C376.204 691.538 337.14 693.682 304.023 677.742C287.034 669.564 272.14 656.308 264.041 639.105C271.254 643.117 278.526 647.052 285.677 651.174C285.76 651.607 285.741 651.715 285.989 652.107C291.218 660.387 326.457 670.518 336.097 672.114C379.131 679.242 428.094 664.793 460.168 635.207C464.313 631.383 468.463 627.095 472.03 622.728C475.073 619.002 478.046 612.885 481.911 610.134C483.016 610.882 482.922 612.213 483.186 613.489C483.466 613.544 483.919 613.646 484.226 613.668C488.221 613.956 493.182 612.723 497.213 612.204C522.443 608.962 548.204 600.932 568.319 584.803C610.826 550.718 626.09 498.975 631.734 446.876L631.04 445.888C627.742 445.393 624.268 445.683 620.937 445.779C620.456 440.56 621.335 434.657 622.508 429.566L632.944 429.462L644.613 429.051Z"/>
	<path fill="#EAD" transform="scale(0.582813 0.582813)" d="M622.508 429.566L632.944 429.462C632.897 433.164 633.026 443.955 631.734 446.876L631.04 445.888C627.742 445.393 624.268 445.683 620.937 445.779C620.456 440.56 621.335 434.657 622.508 429.566Z"/>
	<path fill="#F578C5" transform="scale(0.582813 0.582813)" d="M617.112 797.43C617.31 797.406 617.515 797.412 617.708 797.359C624.35 795.535 634.085 771.559 643.51 774.056C645.284 775.973 645.052 778.929 644.96 781.392C644.314 798.645 635.003 816.907 626.339 831.63C623.408 836.611 608.705 856.718 608.617 860.095C583.973 889.76 537.565 930.138 501.086 943.564C488.027 938.216 470.943 927.015 460.229 917.728C459.093 916.744 457.25 915.6 456.363 914.439C456.251 913.145 455.54 912.424 454.728 911.5C448.68 904.614 441.819 898.401 435.525 891.734C430.059 885.944 425.127 879.584 420.332 873.235C404.726 852.574 385.113 823.64 381.005 797.804C379.487 788.258 382.042 782.243 387.586 774.654C390.184 780.975 395.13 795.909 400.835 799.313C405.712 804.241 413.571 819.101 418.709 826.017C435.142 848.138 474.503 890.634 500.487 899.921C524.262 893.766 573.756 846.425 591.263 827.766C600.343 818.089 608.537 807.559 617.112 797.43Z"/>
	<path fill="#B09FDE" transform="scale(0.582813 0.582813)" d="M463.252 659.687C469.695 658.715 476.285 658.4 482.767 657.686C499.076 655.89 514.983 653.459 530.689 648.58Q532.693 647.965 534.682 647.301Q536.67 646.637 538.642 645.924Q540.613 645.211 542.567 644.449Q544.52 643.688 546.454 642.878Q548.387 642.068 550.301 641.21Q552.214 640.353 554.105 639.448Q555.996 638.544 557.865 637.593Q559.733 636.641 561.577 635.644Q563.421 634.647 565.24 633.605Q567.059 632.562 568.852 631.475Q570.644 630.388 572.41 629.257Q574.175 628.126 575.911 626.951Q577.648 625.776 579.355 624.559Q581.062 623.342 582.738 622.083Q584.414 620.824 586.059 619.524Q587.704 618.223 589.316 616.883Q590.927 615.542 592.506 614.162Q594.084 612.782 595.628 611.364Q597.171 609.945 598.679 608.489Q600.187 607.032 601.659 605.539Q603.13 604.045 604.564 602.516Q605.998 600.987 607.394 599.422Q608.79 597.858 610.146 596.259Q611.503 594.661 612.819 593.029Q614.136 591.398 615.412 589.734Q616.687 588.071 617.922 586.376Q619.156 584.681 620.348 582.956Q621.54 581.232 622.688 579.478Q623.837 577.724 624.942 575.943Q626.047 574.161 627.108 572.352Q628.168 570.544 629.184 568.71Q630.199 566.876 631.169 565.017C627.642 580.536 624.575 596.246 623.154 612.108C623.039 610.927 622.98 609.721 622.729 608.561L622.716 608.563L622.421 609.239L622.108 609.36C614.375 622.477 608.644 634.011 599.8 646.759C569.7 690.145 524.737 729.394 472.767 742.869C441.64 750.94 423.887 747.503 396.331 731.948C398.304 718.77 401.618 705.623 403.822 692.438C426.265 685.337 444.761 674.104 463.252 659.687Z"/>
	<path fill="#FEFEFE" transform="scale(0.582813 0.582813)" d="M271.763 830.017C287.785 844.949 294.647 866.338 301.789 886.392C306.172 901.395 314.095 931.904 311.063 947.118C309.232 956.307 305.086 964.881 302.759 973.934C298.509 990.475 295.677 1007.19 292.781 1024L265.492 1024L206.897 1024C208.838 1008.96 209.644 993.809 211.927 978.78C218.757 933.802 231.107 887.817 256.645 849.635C261.281 842.705 265.899 835.991 271.763 830.017Z"/>
	<path fill="#B09FDE" transform="scale(0.582813 0.582813)" d="M301.789 886.392C306.172 901.395 314.095 931.904 311.063 947.118C309.232 956.307 305.086 964.881 302.759 973.934C298.509 990.475 295.677 1007.19 292.781 1024L265.492 1024C272.907 973.897 284.205 933.552 301.789 886.392Z"/>
	<path fill="#DE388F" transform="scale(0.582813 0.582813)" d="M634.289 599.992C636.155 585.872 638.513 571.831 640.471 557.725C645.214 586.163 654.028 607.862 678.089 625.023L681.046 627.114C694.097 634.418 706.827 640.121 721.4 643.683C724.3 644.157 727.294 644.5 730.132 645.263C732.34 665.676 739.19 683.471 755.579 696.749C773.877 711.573 797.367 717.455 820.614 714.962C829.886 713.968 838.409 711.132 846.895 707.368L847.839 707.941C848.043 707.797 848.235 707.637 848.45 707.511C850.291 706.426 852.133 706.963 854.068 707.488C856.911 704.863 859.49 702.461 860.371 698.563C862.239 696.366 864.325 694.579 866.516 692.718C854.012 720.652 838.383 736.186 809.416 747.197C780.32 758.256 744.909 758.081 715.655 747.298C712.408 744.475 707.376 742.463 703.638 740.186Q700.292 738.152 697.096 735.891Q693.9 733.63 690.868 731.153Q687.836 728.675 684.984 725.993Q682.131 723.311 679.472 720.438Q677.381 718.13 675.378 715.746Q673.374 713.362 671.459 710.905Q669.545 708.449 667.722 705.924Q665.899 703.399 664.171 700.808Q662.443 698.217 660.811 695.564Q659.18 692.912 657.647 690.201Q656.115 687.49 654.683 684.724Q653.252 681.958 651.924 679.141Q650.595 676.324 649.372 673.461Q648.148 670.597 647.031 667.69Q645.914 664.783 644.905 661.836Q643.896 658.89 642.996 655.909Q642.096 652.927 641.307 649.915Q640.518 646.902 639.84 643.862Q639.163 640.823 638.598 637.76Q638.033 634.697 637.582 631.616C636.466 623.882 636.196 616.298 635.878 608.51C635.753 605.464 634.173 603.013 634.289 599.992Z"/>
	<path fill="#F578C5" transform="scale(0.582813 0.582813)" d="M681.046 627.114C694.097 634.418 706.827 640.121 721.4 643.683C724.3 644.157 727.294 644.5 730.132 645.263C732.34 665.676 739.19 683.471 755.579 696.749C773.877 711.573 797.367 717.455 820.614 714.962C829.886 713.968 838.409 711.132 846.895 707.368L847.839 707.941C848.043 707.797 848.235 707.637 848.45 707.511C850.291 706.426 852.133 706.963 854.068 707.488C842.363 721.18 822.987 727.877 805.621 729.968Q804.283 730.138 802.941 730.275Q801.599 730.412 800.255 730.516Q798.91 730.619 797.563 730.689Q796.216 730.758 794.867 730.794Q793.519 730.83 792.17 730.832Q790.821 730.834 789.473 730.803Q788.124 730.771 786.777 730.706Q785.43 730.641 784.085 730.542Q782.74 730.443 781.397 730.31Q780.055 730.177 778.717 730.011Q777.378 729.845 776.044 729.645Q774.71 729.446 773.381 729.213Q772.053 728.98 770.731 728.714Q769.408 728.448 768.093 728.149Q766.778 727.85 765.47 727.518Q764.163 727.186 762.864 726.821Q761.566 726.457 760.277 726.06Q758.988 725.663 757.709 725.234Q756.43 724.805 755.162 724.344Q753.895 723.883 752.639 723.391Q751.383 722.899 750.14 722.375Q748.897 721.851 747.668 721.297Q746.438 720.742 745.223 720.157Q744.008 719.572 742.808 718.956Q741.607 718.341 740.423 717.696Q739.239 717.05 738.071 716.376Q736.903 715.701 735.752 714.997Q734.601 714.293 733.469 713.561Q732.336 712.829 731.222 712.069Q730.108 711.308 729.013 710.52Q727.918 709.732 726.844 708.917Q725.769 708.102 724.715 707.26C705.009 691.598 694.125 669.779 686.288 646.408C684.242 640.308 681.778 633.504 681.046 627.114Z"/>
	<path fill="#FEFEFE" transform="scale(0.582813 0.582813)" d="M721.4 643.683C724.3 644.157 727.294 644.5 730.132 645.263C732.34 665.676 739.19 683.471 755.579 696.749C773.877 711.573 797.367 717.455 820.614 714.962C829.886 713.968 838.409 711.132 846.895 707.368L847.839 707.941C846.514 709.095 844.947 710.101 843.4 710.937C824.944 720.91 796.77 720.035 777.233 713.995C756.1 707.461 739.191 693.074 729.044 673.512C725.791 667.242 719.202 650.51 721.4 643.683Z"/>
	<path fill="#53AA48" transform="scale(0.582813 0.582813)" d="M831.925 570.991Q831.728 571.73 831.514 572.465C825.138 594.558 809.959 615.047 789.719 626.143C765.773 639.271 735.696 640.71 709.737 633.122C686.31 626.274 665.903 612.439 654.158 590.69C647.911 579.123 643.655 564.98 643.168 551.807C642.697 539.041 646.415 526.349 648.673 513.875Q652.014 494.961 654.145 475.873Q655.545 463.829 656.143 451.719C656.457 445.035 655.347 435.246 657.226 429.059C657.892 428.822 658.45 428.927 659.147 428.964C659.719 429.334 659.808 429.349 660.329 429.911C663.021 432.815 663.243 444.932 664.194 449.358Q665.702 456.373 668.03 463.16C672.308 475.511 678.649 486.926 686.181 497.567L690.274 502.554C695.681 507.991 700.944 513.219 707.249 517.639C712.214 520.726 717.176 523.515 722.569 525.786C723.511 543.062 735.261 563.671 747.934 575.098C753.936 580.51 761.696 585.598 769.483 587.96L770.685 588.172C771.664 588.525 772.647 588.782 773.662 589.008C785.389 591.61 804.11 590.528 814.334 583.723C816.56 582.241 818.427 580.717 818.952 578.066C824.671 574.35 829.496 569.944 834.416 565.265L831.925 570.991Z"/>
	<path fill="#B0F381" transform="scale(0.582813 0.582813)" d="M686.181 497.567L690.274 502.554C688.756 525.263 703.258 560.38 717.918 577.287C730.677 592 748.16 602.163 767.781 603.494C779.476 604.287 787.993 601.443 799.056 600.319C797.393 601.671 795.372 602.63 793.398 603.445C777.385 610.058 758.072 608.862 742.29 602.195C719.883 592.73 703.227 573.941 694.345 551.522C690.265 541.223 681.86 507.548 686.181 497.567Z"/>
	<path fill="#F0C419" transform="scale(0.582813 0.582813)" d="M690.274 502.554C695.681 507.991 700.944 513.219 707.249 517.639C712.214 520.726 717.176 523.515 722.569 525.786C723.511 543.062 735.261 563.671 747.934 575.098C753.936 580.51 761.696 585.598 769.483 587.96L770.685 588.172C771.664 588.525 772.647 588.782 773.662 589.008C785.389 591.61 804.11 590.528 814.334 583.723C816.56 582.241 818.427 580.717 818.952 578.066C824.671 574.35 829.496 569.944 834.416 565.265L831.925 570.991C822.184 574.722 817.344 592.603 799.056 600.319C787.993 601.443 779.476 604.287 767.781 603.494C748.16 602.163 730.677 592 717.918 577.287C703.258 560.38 688.756 525.263 690.274 502.554Z"/>
	<path fill="#F9E842" transform="scale(0.582813 0.582813)" d="M707.249 517.639C712.214 520.726 717.176 523.515 722.569 525.786C723.511 543.062 735.261 563.671 747.934 575.098C753.936 580.51 761.696 585.598 769.483 587.96C769.326 587.991 769.171 588.03 769.013 588.053C761.01 589.24 752.792 584.22 746.561 579.753Q742.682 577.01 739.153 573.828Q735.624 570.646 732.495 567.071C725.016 558.513 706.902 531.54 705.859 520.795C705.709 519.256 706.296 518.763 707.249 517.639Z"/>
	<path fill="#FEFEFE" transform="scale(0.582813 0.582813)" d="M715.808 882.517C724.705 862.685 736.05 844.779 752 829.842C758.886 838.549 765.41 847.366 770.974 856.991C793.822 896.513 803.462 944.014 809.511 988.726C811.099 1000.46 812.029 1012.27 813.592 1024L756.569 1024L722.781 1024C719.107 1012.56 716.023 1000.64 713.255 988.947C704.476 951.862 701.739 919.008 715.808 882.517Z"/>
	<path fill="#B09FDE" transform="scale(0.582813 0.582813)" d="M715.808 882.517C721.279 888.921 725.689 907.276 728.225 915.833Q738.553 950.17 747.271 984.951C750.504 997.902 753.014 1011.15 756.569 1024L722.781 1024C719.107 1012.56 716.023 1000.64 713.255 988.947C704.476 951.862 701.739 919.008 715.808 882.517Z"/>
	<path fill="#FEFEFE" transform="scale(0.582813 0.582813)" d="M670.407 165.641C673.984 185.016 676.526 204.232 677.656 223.901C682.585 262.211 670.236 306.967 646.771 337.539C644.221 340.861 628.691 354.899 628.449 355.957L628.61 356.248C630.908 355.132 633.158 353.781 635.403 352.555C638.853 360.395 642.438 386.108 643.681 395.99L612.192 396.282C611.729 394.65 611.314 392.748 610.384 391.316C605.822 384.296 587.784 382.641 580.095 381.164C543.847 374.203 507.417 368.798 470.438 368.5C449.221 368.329 427.285 372.654 406.22 369.411C398.928 368.288 392.392 364.706 385.663 361.879C379.158 359.146 372.392 356.658 365.589 354.781Q343.215 348.615 320.286 345.019C310.249 343.393 300.132 342.24 290.13 340.416C296.269 329.16 306.042 319.773 314.998 310.741C328.812 327.288 362.253 345.282 383.164 351.961Q389.73 354.031 396.486 355.353Q403.243 356.675 410.105 357.232C448.808 360.754 488.091 348.587 523.077 333.031C541.236 324.957 558.527 316.057 578.548 313.242C578.512 316.348 578.999 319.021 579.649 322.042C580.185 309.238 580.236 296.299 582.739 283.692C592.859 232.729 628.399 193.791 670.407 165.641Z"/>
	<path fill="#B09FDE" transform="scale(0.582813 0.582813)" d="M677.656 223.901C682.585 262.211 670.236 306.967 646.771 337.539C644.221 340.861 628.691 354.899 628.449 355.957L628.61 356.248C624.981 359.345 619.272 360.556 614.76 361.581C645.78 329.796 662.458 296.119 672.314 253.237C674.48 243.81 675.136 234.057 677.457 224.69L677.656 223.901Z"/>
	<path fill="#020B64" transform="scale(0.582813 0.582813)" d="M660.493 191.892C661.164 192.495 660.998 192.219 661.367 193.12C663.552 198.459 663.214 206.541 663.482 212.239C664.839 241.099 662.134 268.832 649.219 295.212C638.773 316.55 623.834 335.133 600.782 342.964L599.967 342.832C601.623 341.109 605.123 339.839 607.317 338.742Q605.917 331.65 605.359 324.443Q604.801 317.237 605.093 310.014C606.64 268.314 630.012 220.241 660.493 191.892Z"/>
	<path fill="#EAD" transform="scale(0.582813 0.582813)" d="M658.468 198.51C662.077 203.012 660.008 239.04 659.299 246.373C655.732 283.272 638.691 313.307 610.314 336.615C609.656 336.82 610.048 336.787 609.146 336.444C608.834 335.429 608.676 334.573 608.592 333.505C605.872 299.07 618.639 256.816 636.502 227.622C642.902 217.164 650.573 207.849 658.468 198.51Z"/>
	<path fill="#FEFEFE" transform="scale(0.582813 0.582813)" d="M396.331 731.948C423.887 747.503 441.64 750.94 472.767 742.869C524.737 729.394 569.7 690.145 599.8 646.759C608.644 634.011 614.375 622.477 622.108 609.36L622.421 609.239L622.716 608.563L622.729 608.561C622.98 609.721 623.039 610.927 623.154 612.108C620.024 641.361 620.566 671.968 624.225 701.151Q625.687 712.884 627.864 724.505C629.609 733.487 635.464 751.776 634.218 759.977C633.325 765.854 628.739 771.895 625.576 776.85C602.724 812.636 570.84 843.695 537.933 870.205C526.302 879.575 514.006 889.227 500.476 895.72C459.755 869.838 423.188 832.135 401.347 788.824C397.772 781.734 393.489 774.013 391.85 766.193C389.551 755.219 393.785 742.629 396.331 731.948Z"/>
	<path fill="#33DCF2" transform="scale(0.582813 0.582813)" d="M230.575 358.415C230.35 355.416 229.787 351.725 230.483 348.809C230.825 347.375 231.469 346.357 232.762 345.612C246.836 337.502 323.406 349.117 341.229 353.464L348.452 354.631C357.728 356.803 367.227 359.058 376.017 362.816C384.956 365.558 393.024 370.683 401.967 373.086C417.907 377.368 434.339 372.566 450.419 373.108C489.883 371.493 529.152 375.808 567.965 382.666C580.283 384.843 593.056 386.74 604.803 391.17C607.519 393.438 608.563 395.289 608.885 398.838Q608.999 400.176 609.062 401.517C608.913 401.612 608.761 401.705 608.613 401.801C600.509 407.085 596.62 418.315 592.981 426.81C573.951 471.237 558.965 528.156 497.389 516.025C486.612 513.902 476.752 508.339 467.67 502.371C463.865 499.871 456.774 493.837 452.662 493.011C438.558 478.841 425.637 451.422 420.613 431.833C418.573 423.88 418.041 415.206 414.787 407.621C413.724 405.143 411.891 403.053 409.299 402.135C404.198 400.327 400.194 406.158 398.361 410.028C383.027 442.388 364.207 469.356 330.557 484.798C321.916 490.729 309.334 493.855 299.443 497.39C285.449 491.8 273.062 484.377 261.784 474.333C261.195 473.808 260.62 473.287 260.058 472.732C254.832 467.575 250.468 462.332 247.026 455.83C233.474 430.233 230.629 387.174 230.575 358.415Z"/>
	<path fill="#A0DDE8" transform="scale(0.582813 0.582813)" d="M341.229 353.464L348.452 354.631C348.76 355.624 349.003 356.754 349.426 357.697C346.935 357.367 344.447 356.722 341.989 356.198L341.229 353.464Z"/>
	<path fill="#A8F1F2" transform="scale(0.582813 0.582813)" d="M348.452 354.631C357.728 356.803 367.227 359.058 376.017 362.816C367.662 362.974 357.531 359.804 349.426 357.697C349.003 356.754 348.76 355.624 348.452 354.631Z"/>
	<path fill="#29A7EE" transform="scale(0.582813 0.582813)" d="M270.147 473.651C268.202 471.469 266.266 469.27 264.072 467.332C263.012 466.396 260.899 465.237 260.096 464.226C260.035 464.149 260.105 464.03 260.109 463.931C265.229 465.327 268.13 470.108 271.906 473.511C278.826 479.748 287.081 485.527 296.222 487.658C296.455 487.712 296.685 487.776 296.918 487.826C300.259 488.554 303.709 486.957 306.991 487.81C305.092 488.138 303.165 488.282 301.56 489.422C301.382 490.503 301.244 490.085 301.881 490.939C302.759 492.115 304.014 492.722 305.452 492.876C313.856 493.777 321.747 485.278 330.228 484.823C330.338 484.817 330.447 484.806 330.557 484.798C321.916 490.729 309.334 493.855 299.443 497.39C285.449 491.8 273.062 484.377 261.784 474.333C264.037 474.78 265.523 474.592 267.746 474.127C268.544 473.96 269.348 473.812 270.147 473.651Z"/>
	<path fill="#FEFEFE" transform="scale(0.582813 0.582813)" d="M450.419 373.108C489.883 371.493 529.152 375.808 567.965 382.666C580.283 384.843 593.056 386.74 604.803 391.17L601.875 395.535C596.486 393.611 591.274 391.481 585.753 389.911C566.749 384.505 546.593 382.262 527.03 379.831C519.078 378.843 511.07 377.92 503.081 377.311C494.132 376.629 455.343 375.67 450.419 373.108Z"/>
	<path fill="#FEFEFE" transform="scale(0.582813 0.582813)" d="M230.575 358.415C230.35 355.416 229.787 351.725 230.483 348.809C230.825 347.375 231.469 346.357 232.762 345.612C246.836 337.502 323.406 349.117 341.229 353.464L341.989 356.198C304.582 351.09 272.628 345.459 234.485 349.557Q234.299 361.258 233.707 372.945Q231.612 365.794 230.575 358.415Z"/>
	<path fill="#020B64" transform="scale(0.582813 0.582813)" d="M277.546 354.722Q286.1 354.81 294.619 355.599C314.221 357.233 367.742 364.016 380.266 379.679C385.374 386.067 385.635 395.255 384.539 403.006C380.581 431.002 361.105 454.315 339.238 470.846C329.528 477.427 318.702 483.823 306.885 485.48C297.411 486.808 289.334 483.169 281.939 477.585C260.99 461.764 252.306 444.464 248.837 418.68C246.873 404.073 244.692 373.854 254.186 361.985C259.526 355.309 269.744 355.419 277.546 354.722Z"/>
	<path fill="#306DC5" transform="scale(0.582813 0.582813)" d="M316.813 361.559C319.798 361.871 322.543 362.206 325.422 363.104Q333.417 365.184 341.478 366.995C327.769 387.836 314.945 409.229 301.854 430.46C293.755 443.593 284.812 456.375 277.98 470.228C274.036 466.241 270.339 462.074 266.639 457.863C263.547 455.651 262.78 453.437 261.694 449.972C264.093 449.209 311.074 371.292 316.813 361.559Z"/>
	<path fill="#00358D" transform="scale(0.582813 0.582813)" d="M316.813 361.559C319.798 361.871 322.543 362.206 325.422 363.104C319.421 372.408 313.953 382.057 308.205 391.516Q293.784 415.045 278.898 438.282C274.775 444.7 271.138 451.737 266.639 457.863C263.547 455.651 262.78 453.437 261.694 449.972C264.093 449.209 311.074 371.292 316.813 361.559Z"/>
	<path fill="#306DC5" transform="scale(0.582813 0.582813)" d="M261.694 449.972C254.74 433.475 252.275 416.116 252.466 398.323C252.572 388.441 252.079 371.228 259.743 364.12C270.933 353.741 302.234 360.945 316.813 361.559C311.074 371.292 264.093 449.209 261.694 449.972Z"/>
	<path fill="#00358D" transform="scale(0.582813 0.582813)" d="M344.526 367.397C350.428 369.791 356.888 371.172 362.893 373.408C369.534 375.88 376.087 378.769 379.057 385.722C383.479 396.074 379.713 409.797 375.757 419.704C364.601 447.64 341.446 468.615 314.13 480.377C312.669 480.993 311.208 481.514 309.668 481.901C298.111 484.806 289.402 478.277 280.116 472.59C285.401 464.961 290.145 456.805 295.094 448.948Q311.398 423.267 326.84 397.058C332.68 387.135 339.502 377.782 344.526 367.397Z"/>
	<path fill="#020B64" transform="scale(0.582813 0.582813)" d="M468.654 382.709C496.567 381.274 532.74 384.026 559.703 392.074C566.666 394.153 573.712 396.551 577.265 403.45C585.01 418.487 578.047 446.557 573.058 462.25C566.849 481.784 557.31 498.337 538.665 507.999C532.765 510.678 526.17 512.049 519.743 512.619C500.573 514.318 482.695 508.302 468.05 495.907C444.701 476.145 432.559 443.772 430.185 413.903C429.621 406.813 429.348 397.583 434.394 391.943C442.241 383.172 457.841 383.419 468.654 382.709Z"/>
	<path fill="#00358D" transform="scale(0.582813 0.582813)" d="M460.928 386.708C463.172 386.432 465.527 386.49 467.79 386.415C461.387 392.747 457.208 401.122 452.501 408.711Q445.501 419.89 438.377 430.992C437.816 431.994 438.206 431.632 437.256 432.126C436.127 430.596 435.936 428.475 435.652 426.628C434.252 417.539 430.851 402.673 436.867 394.968C442.26 388.061 452.881 387.476 460.928 386.708Z"/>
	<path fill="#306DC5" transform="scale(0.582813 0.582813)" d="M470.108 386.83C477.071 387.537 484.152 387.203 491.146 387.336C499.794 387.5 508.812 388.032 517.428 388.835C516.494 394.288 507.443 407.253 504.204 412.756Q489.046 438.36 474.247 464.172C470.325 471.009 465.719 477.672 462.328 484.766C450.588 472.093 444.266 454.898 438.76 438.792C448.666 421.191 459.498 404.018 470.108 386.83Z"/>
	<defs>
		<linearGradient id="gradient_2" gradientUnits="userSpaceOnUse" x1="477.66211" y1="436.50769" x2="565.95148" y2="463.11557">
			<stop offset="0" stop-color="#00217F"/>
			<stop offset="1" stop-color="#003E94"/>
		</linearGradient>
	</defs>
	<path fill="url(#gradient_2)" transform="scale(0.582813 0.582813)" d="M517.428 388.835C519.486 388.934 521.893 388.795 523.895 389.178L539.136 392.251C549.386 393.716 565.713 395.651 573.051 403.788C579.678 425.988 570.907 458.747 560.069 478.79C553.088 491.7 542.982 501.913 528.656 506.116C514.194 510.36 495.998 509.291 482.739 501.817C481.366 501.043 479.966 500.145 478.726 499.175C473.936 495.828 469.295 492.763 465.59 488.167C464.713 486.858 463.471 485.837 462.328 484.766C465.719 477.672 470.325 471.009 474.247 464.172Q489.046 438.36 504.204 412.756C507.443 407.253 516.494 394.288 517.428 388.835Z"/>
	<path fill="#306DC5" transform="scale(0.582813 0.582813)" d="M482.122 461.278C486.302 463.877 490.878 465.534 495.082 468.003C490.508 478.867 483.827 488.577 478.726 499.175C473.936 495.828 469.295 492.763 465.59 488.167Q474.146 474.901 482.122 461.278Z"/>
	<path fill="#306DC5" transform="scale(0.582813 0.582813)" d="M523.895 389.178L539.136 392.251C537.339 400.046 523.698 420.053 518.868 428.187Q509.209 444.548 499.754 461.027Q492.98 457.678 486.814 453.31Q499.263 433.231 511.02 412.739C513.971 407.482 520.546 392.996 523.895 389.178Z"/>
	<path fill="#FEFEFE" transform="scale(0.582813 0.582813)" d="M449.51 584.973Q448.524 588.509 447.238 591.947Q445.953 595.385 444.377 598.701Q442.802 602.017 440.948 605.185Q439.094 608.353 436.976 611.351C419.261 636.162 389.167 649.606 359.771 654.4C329.667 659.308 295.051 654.853 269.917 636.624C255.222 625.966 246.569 610.285 243.722 592.498Q243.384 590.43 243.15 588.349Q242.916 586.267 242.786 584.176Q242.656 582.085 242.63 579.99Q242.604 577.895 242.683 575.802Q242.762 573.708 242.945 571.621Q243.128 569.534 243.415 567.459Q243.702 565.384 244.092 563.326Q244.482 561.267 244.974 559.231C252.887 526.821 279.46 510.41 308.074 497.789C324.48 490.553 342.303 485.1 356.393 473.605C370.828 461.829 384.144 445.421 392.939 428.968C396.254 422.766 398.937 414.781 403.192 409.278C404.278 407.873 405.421 406.84 407.279 406.748C412.017 406.512 413.217 414.259 413.885 417.704C419.745 447.888 430.938 476.581 452.566 499.201C465.041 512.25 481.627 523.012 499.624 526.189C506.02 527.318 512.515 527.455 518.991 527.579C520.138 528.218 521.064 528.478 522.354 528.671C541.517 531.54 569.795 523.955 585.277 512.228C605.058 497.245 617.482 469.963 620.937 445.779C624.268 445.683 627.742 445.393 631.04 445.888L631.734 446.876C626.09 498.975 610.826 550.718 568.319 584.803C548.204 600.932 522.443 608.962 497.213 612.204C493.182 612.723 488.221 613.956 484.226 613.668C483.919 613.646 483.466 613.544 483.186 613.489C482.922 612.213 483.016 610.882 481.911 610.134C478.046 612.885 475.073 619.002 472.03 622.728C468.463 627.095 464.313 631.383 460.168 635.207C428.094 664.793 379.131 679.242 336.097 672.114C326.457 670.518 291.218 660.387 285.989 652.107C285.741 651.715 285.76 651.607 285.677 651.174Q289.929 652.869 294.265 654.333C330.826 666.423 370.629 662.339 404.845 645.117C431.224 631.84 444.03 614.061 453.074 586.508C456.742 588.73 460.128 591.333 463.557 593.898C461.871 589.729 460.442 585.994 456.842 583.001C453.502 580.225 449.282 579.343 445.031 579.889C441.736 580.313 436.145 582.481 434.054 585.049L434.179 585.813C436.962 587.591 446.142 585.336 449.51 584.973Z"/>
	<path fill="#020B64" transform="scale(0.582813 0.582813)" d="M263.688 550.922C266.793 551.427 269.247 552.081 271.643 554.23C275.931 558.076 277.467 564.228 277.817 569.784C278.152 575.086 277.293 580.593 273.647 584.725L272.885 584.743L272.897 583.82C272.584 582.973 272.216 581.61 271.724 580.895C270.295 578.815 262.346 578.041 258.762 573.409C256.305 570.234 255.443 566.199 256.04 562.262C256.816 557.147 259.601 553.786 263.688 550.922Z"/>
	<path fill="#020B64" transform="scale(0.582813 0.582813)" d="M355.348 556.052C357.894 555.91 360.577 556.04 362.922 557.123C366.022 558.555 368.575 561.173 369.657 564.437C370.582 567.229 370.351 570.303 368.87 572.862C365.051 579.463 357.781 578.356 351.793 580.66C350.329 581.223 349.784 582.763 349.176 584.088C349.089 584.279 349.006 584.471 348.92 584.663C348.453 586.833 348.042 590.429 346.232 591.88L345.265 591.403C343.745 589.448 342.637 587.39 341.927 585.007C339.952 578.379 340.963 570.219 344.445 564.239C347.018 559.82 350.462 557.352 355.348 556.052Z"/>
	<path fill="#FEFEFE" transform="scale(0.582813 0.582813)" d="M663.036 774.989C686.854 780.912 730.356 810.11 748.478 827.284C718.193 855.513 707.841 882.943 701.039 922.483C700.908 948.417 701.69 968.998 706.562 994.656C707.932 1001.87 713.02 1017.77 710.426 1024L641.912 1024L371.596 1024L306.974 1024C306.905 1006.29 307.637 988.695 309.991 971.117C311.272 961.546 314.538 952.258 315.58 942.729C316.248 936.622 315.484 930.477 315.431 924.352C313.742 916.818 312.941 909.121 311.314 901.58C306.761 880.486 298.539 858.934 286.373 841.051C282.922 835.978 278.73 831.491 275.049 826.595C299.994 804.09 329.742 788.296 360.423 775.037C362.571 787.196 365.8 798.794 370.547 810.199C392.293 862.448 448.284 926.911 501.262 948.741Q508.444 945.891 515.341 942.408Q522.238 938.924 528.794 934.835C581.183 902.251 648.657 836.795 663.036 774.989Z"/>
	<path fill="#B09FDE" transform="scale(0.582813 0.582813)" d="M315.431 924.352C327.81 956.773 348.254 998.223 371.596 1024L306.974 1024C306.905 1006.29 307.637 988.695 309.991 971.117C311.272 961.546 314.538 952.258 315.58 942.729C316.248 936.622 315.484 930.477 315.431 924.352Z"/>
	<path fill="#B09FDE" transform="scale(0.582813 0.582813)" d="M701.039 922.483C700.908 948.417 701.69 968.998 706.562 994.656C707.932 1001.87 713.02 1017.77 710.426 1024L641.912 1024C645.533 1018.11 650.401 1012.7 654.442 1007.05Q665.097 992.062 674.119 976.038Q681.732 962.429 688.356 948.313C692.385 939.67 696.103 930.65 701.039 922.483Z"/>
</svg>
